<?xml version="1.0" encoding="UTF-8"?>
<svg id="_Слой_1" data-name="Слой 1" xmlns="http://www.w3.org/2000/svg" viewBox="0 0 1336.03 1008.07">
  <defs>
    <style>
      .cls-1, .cls-2 {
        fill: #1d1d1b;
      }

      .cls-1, .cls-2, .cls-3, .cls-4 {
        font-family: Arial-BoldMT, Arial;
        font-weight: 700;
      }

      .cls-1, .cls-3, .cls-4 {
        font-size: 57.1px;
      }

      .cls-5 {
        stroke: #be1717;
      }

      .cls-5, .cls-6 {
        fill: #fff;
        stroke-width: 10px;
      }

      .cls-5, .cls-6, .cls-7 {
        stroke-miterlimit: 10;
      }

      .cls-2 {
        font-size: 63.76px;
      }

      .cls-8 {
        letter-spacing: .04em;
      }

      .cls-3, .cls-9 {
        fill: #063;
      }

      .cls-10 {
        letter-spacing: -.04em;
      }

      .cls-6 {
        stroke: #008d36;
      }

      .cls-4 {
        fill: #a51e26;
      }

      .cls-9 {
        stroke-width: 0px;
      }

      .cls-7 {
        fill: none;
        stroke: #063;
        stroke-width: 2px;
      }

      .cls-11 {
        letter-spacing: -.02em;
      }
    </style>
  </defs>
  <rect class="cls-5" x="5" y="165.07" width="364" height="104"/>
  <text class="cls-1" transform="translate(50.03 235.14)"><tspan x="0" y="0">From Line</tspan></text>
  <rect class="cls-6" x="5" y="295.07" width="364" height="104"/>
  <text class="cls-1" transform="translate(85.03 365.14)"><tspan x="0" y="0">Email 1</tspan></text>
  <rect class="cls-5" x="5" y="445.07" width="364" height="104"/>
  <text class="cls-1" transform="translate(50.03 515.14)"><tspan x="0" y="0">From Line</tspan></text>
  <rect class="cls-6" x="5" y="575.07" width="364" height="104"/>
  <text class="cls-1" transform="translate(85.03 645.14)"><tspan x="0" y="0">Email 2</tspan></text>
  <text class="cls-1" transform="translate(187 699.27) rotate(90)"><tspan x="0" y="0">...</tspan></text>
  <rect class="cls-5" x="5" y="769.07" width="364" height="104"/>
  <text class="cls-1" transform="translate(50.03 839.14)"><tspan x="0" y="0">From Line</tspan></text>
  <rect class="cls-6" x="5" y="899.07" width="364" height="104"/>
  <text class="cls-1" transform="translate(85.03 969.14)"><tspan x="0" y="0">Email N</tspan></text>
  <text class="cls-2" transform="translate(1 54.7)"><tspan x="0" y="0">Mbox Storage Structure</tspan></text>
  <text class="cls-4" transform="translate(527.07 205.14)"><tspan x="0" y="0">FromLine: Starts with «From»</tspan><tspan x="0" y="68.51">followed by sende</tspan><tspan class="cls-8" x="494.9" y="68.51">r</tspan><tspan class="cls-10" x="519.24" y="68.51">’</tspan><tspan x="532.98" y="68.51">s email</tspan><tspan x="0" y="137.03">address and date</tspan></text>
  <text class="cls-3" transform="translate(635.29 645.14)"><tspan x="0" y="0">Message in EM</tspan><tspan class="cls-11" x="409.31" y="0">L</tspan><tspan x="443.16" y="0" xml:space="preserve"> Format</tspan></text>
  <line class="cls-7" x1="401" y1="356.4" x2="619.35" y2="587.07"/>
  <line class="cls-7" x1="393" y1="627.07" x2="611.67" y2="627.07"/>
  <line class="cls-7" x1="402.33" y1="951.07" x2="623.67" y2="663.07"/>
  <polygon class="cls-9" points="619.41 627.07 610.16 621.72 610.16 632.41 619.41 627.07"/>
  <polygon class="cls-9" points="628.93 656.42 618.98 660.32 627.33 666.99 628.93 656.42"/>
  <polygon class="cls-9" points="625.52 593.3 622.76 582.97 615.2 590.53 625.52 593.3"/>
</svg>