<?xml version="1.0" encoding="UTF-8"?>
<svg id="_Слой_1" data-name="Слой 1" xmlns="http://www.w3.org/2000/svg" viewBox="0 0 928.73 1289.66">
  <defs>
    <style>
      .cls-1 {
        stroke: #006837;
      }

      .cls-1, .cls-2, .cls-3, .cls-4 {
        stroke-miterlimit: 10;
        stroke-width: 5px;
      }

      .cls-1, .cls-5, .cls-6 {
        fill: #006837;
      }

      .cls-7, .cls-8, .cls-9, .cls-10, .cls-11, .cls-12, .cls-6 {
        stroke-width: 0px;
      }

      .cls-7, .cls-13, .cls-14 {
        fill: #22b573;
      }

      .cls-15, .cls-16, .cls-17, .cls-13, .cls-18, .cls-5, .cls-19, .cls-20, .cls-14, .cls-21, .cls-22 {
        font-family: Arial-BoldMT, Arial;
        font-weight: 700;
      }

      .cls-15, .cls-13 {
        font-size: 30.81px;
      }

      .cls-15, .cls-19, .cls-12, .cls-21 {
        fill: #f15a24;
      }

      .cls-8, .cls-17, .cls-18, .cls-4, .cls-22 {
        fill: #c1272d;
      }

      .cls-9, .cls-3, .cls-20 {
        fill: #0071bc;
      }

      .cls-2, .cls-11 {
        fill: #fff;
      }

      .cls-2, .cls-4 {
        stroke: #c1272d;
      }

      .cls-16, .cls-17, .cls-20 {
        font-size: 43.14px;
      }

      .cls-18, .cls-5 {
        font-size: 39.52px;
      }

      .cls-23 {
        letter-spacing: -.07em;
      }

      .cls-3 {
        stroke: #0071bc;
      }

      .cls-24 {
        letter-spacing: 0em;
      }

      .cls-25 {
        letter-spacing: -.02em;
      }

      .cls-19, .cls-14 {
        font-size: 34.03px;
      }

      .cls-26 {
        letter-spacing: -.07em;
      }

      .cls-27 {
        letter-spacing: -.07em;
      }

      .cls-21 {
        font-size: 40.78px;
      }

      .cls-22 {
        font-size: 34.56px;
      }
    </style>
  </defs>
  <g>
    <rect class="cls-11" x="2.5" y="2.5" width="923.73" height="1284.66"/>
    <path class="cls-10" d="m923.73,5v1279.66H5V5h918.73m5-5H0v1289.66h928.73V0h0Z"/>
  </g>
  <polyline class="cls-2" points="464.36 181.5 65.42 181.5 65.42 116.17 500.03 116.17"/>
  <polyline class="cls-4" points="329.61 116.17 862.97 116.17 862.97 179.05 277.2 179.05"/>
  <g>
    <rect class="cls-11" x="66.03" y="179.32" width="399" height="205"/>
    <path class="cls-8" d="m462.53,181.82v200H68.53v-200h394m5-5H63.53v210h404v-210h0Z"/>
  </g>
  <g>
    <rect class="cls-11" x="464.36" y="179.32" width="398.33" height="205"/>
    <path class="cls-8" d="m860.2,181.82v200h-393.33v-200h393.33m5-5h-403.33v210h403.33v-210h0Z"/>
  </g>
  <g>
    <rect class="cls-11" x="66.03" y="434.32" width="796.67" height="796.67"/>
    <path class="cls-9" d="m860.2,436.82v791.67H68.53V436.82h791.67m5-5H63.53v801.67h801.67V431.82h0Z"/>
  </g>
  <g>
    <rect class="cls-11" x="66.03" y="434.32" width="796.33" height="60.33"/>
    <path class="cls-9" d="m859.86,436.82v55.33H68.53v-55.33h791.33m5-5H63.53v65.33h801.33v-65.33h0Z"/>
  </g>
  <g>
    <rect class="cls-11" x="136.03" y="553.92" width="651.67" height="282.24"/>
    <path class="cls-6" d="m785.2,556.42v277.24H138.53v-277.24h646.67m5-5H133.53v287.24h656.67v-287.24h0Z"/>
  </g>
  <g>
    <rect class="cls-11" x="136.03" y="894.92" width="651.67" height="282.24"/>
    <path class="cls-8" d="m785.2,897.42v277.24H138.53v-277.24h646.67m5-5H133.53v287.24h656.67v-287.24h0Z"/>
  </g>
  <g>
    <rect class="cls-11" x="136.03" y="553.32" width="651.67" height="60.33"/>
    <path class="cls-6" d="m785.2,555.82v55.33H138.53v-55.33h646.67m5-5H133.53v65.33h656.67v-65.33h0Z"/>
  </g>
  <g>
    <rect class="cls-11" x="136.03" y="894.32" width="651.67" height="60.33"/>
    <path class="cls-8" d="m785.2,896.82v55.33H138.53v-55.33h646.67m5-5H133.53v65.33h656.67v-65.33h0Z"/>
  </g>
  <g>
    <rect class="cls-11" x="186.7" y="652.41" width="245" height="140.83"/>
    <path class="cls-7" d="m429.2,654.91v135.83h-240v-135.83h240m5-5h-250v145.83h250v-145.83h0Z"/>
  </g>
  <g>
    <rect class="cls-11" x="487.7" y="652.41" width="245" height="140.83"/>
    <path class="cls-7" d="m730.2,654.91v135.83h-240v-135.83h240m5-5h-250v145.83h250v-145.83h0Z"/>
  </g>
  <g>
    <rect class="cls-11" x="186.7" y="993.41" width="245" height="140.83"/>
    <path class="cls-12" d="m429.2,995.91v135.83h-240v-135.83h240m5-5h-250v145.83h250v-145.83h0Z"/>
  </g>
  <g>
    <rect class="cls-11" x="487.7" y="993.41" width="245" height="140.83"/>
    <path class="cls-12" d="m730.2,995.91v135.83h-240v-135.83h240m5-5h-250v145.83h250v-145.83h0Z"/>
  </g>
  <polyline class="cls-3" points="274.88 435.82 861.97 435.82 861.97 493.39 217.2 493.39"/>
  <polyline class="cls-1" points="417.43 553.82 786.2 553.82 786.2 611.39 381.2 611.39"/>
  <polyline class="cls-4" points="449.3 894.82 786.2 894.82 786.2 952.39 416.2 952.39"/>
  <g>
    <rect class="cls-11" x="187.7" y="652.32" width="243" height="43"/>
    <path class="cls-7" d="m428.2,654.82v38h-238v-38h238m5-5h-248v48h248v-48h0Z"/>
  </g>
  <g>
    <rect class="cls-11" x="488.7" y="652.32" width="243" height="43"/>
    <path class="cls-7" d="m729.2,654.82v38h-238v-38h238m5-5h-248v48h248v-48h0Z"/>
  </g>
  <g>
    <rect class="cls-11" x="488.7" y="992.32" width="243" height="43"/>
    <path class="cls-12" d="m729.2,994.82v38h-238v-38h238m5-5h-248v48h248v-48h0Z"/>
  </g>
  <g>
    <rect class="cls-11" x="187.7" y="992.32" width="243" height="43"/>
    <path class="cls-12" d="m428.2,994.82v38h-238v-38h238m5-5h-248v48h248v-48h0Z"/>
  </g>
  <text class="cls-17" transform="translate(86.99 162.01)"><tspan x="0" y="0">Headers</tspan></text>
  <text class="cls-20" transform="translate(84.84 478.5)"><tspan x="0" y="0">Parts</tspan></text>
  <text class="cls-5" transform="translate(161.6 596.52)"><tspan class="cls-26" x="0" y="0">T</tspan><tspan class="cls-24" x="21.21" y="0">ext Parts</tspan></text>
  <text class="cls-18" transform="translate(153.75 936.84)"><tspan x="0" y="0">Attachments</tspan></text>
  <text class="cls-13" transform="translate(226.49 684.23)"><tspan class="cls-27" x="0" y="0">T</tspan><tspan x="16.53" y="0">ext/Plain</tspan></text>
  <text class="cls-13" transform="translate(524.03 686.23)"><tspan class="cls-27" x="0" y="0">T</tspan><tspan x="16.53" y="0">ext/HTM</tspan><tspan class="cls-25" x="136.35" y="0">L</tspan></text>
  <text class="cls-14" transform="translate(242.59 752.01)"><tspan x="0" y="0">Content</tspan></text>
  <text class="cls-14" transform="translate(545.75 752.45)"><tspan x="0" y="0">Content</tspan></text>
  <text class="cls-19" transform="translate(243.19 1094.16)"><tspan x="0" y="0">Content</tspan></text>
  <text class="cls-19" transform="translate(545.35 1093.27)"><tspan x="0" y="0">Content</tspan></text>
  <text class="cls-15" transform="translate(242.18 1023.8)"><tspan x="0" y="0">Attach. 1</tspan></text>
  <text class="cls-15" transform="translate(543.95 1024.46)"><tspan x="0" y="0">Attach. N</tspan></text>
  <text class="cls-21" transform="translate(443.21 1073.97)"><tspan x="0" y="0">...</tspan></text>
  <text class="cls-22" transform="translate(90.14 226.81)"><tspan x="0" y="0">From:</tspan></text>
  <text class="cls-22" transform="translate(90.14 269.35)"><tspan class="cls-23" x="0" y="0">T</tspan><tspan x="18.55" y="0">o:</tspan></text>
  <text class="cls-22" transform="translate(90.14 310.8)"><tspan x="0" y="0">Subject:</tspan></text>
  <text class="cls-22" transform="translate(90.14 352.21)"><tspan x="0" y="0">Date:</tspan></text>
  <text class="cls-22" transform="translate(490.67 227.26)"><tspan x="0" y="0">Message-id;</tspan></text>
  <text class="cls-22" transform="translate(490.46 269.8)"><tspan x="0" y="0">Mime-version;</tspan></text>
  <text class="cls-22" transform="translate(489.65 310.8)"><tspan x="0" y="0">Content-type;</tspan></text>
  <text class="cls-16" transform="translate(295.4 65.3)"><tspan x="0" y="0">Multipart/Mixed</tspan></text>
</svg>