<?xml version="1.0" encoding="UTF-8"?>
<svg id="_Слой_1" data-name="Слой 1" xmlns="http://www.w3.org/2000/svg" viewBox="0 0 909 134.46">
  <defs>
    <style>
      .cls-1 {
        fill: #fff;
        stroke: #1d1d1b;
        stroke-width: 4px;
      }

      .cls-1, .cls-2 {
        stroke-miterlimit: 10;
      }

      .cls-3 {
        font-size: 29.52px;
      }

      .cls-3, .cls-4 {
        fill: #1d1d1b;
        font-family: Arial-BoldMT, Arial;
        font-weight: 700;
      }

      .cls-5 {
        letter-spacing: -.04em;
      }

      .cls-4 {
        font-size: 16.82px;
      }

      .cls-2 {
        fill: none;
        stroke: #e6332a;
        stroke-width: 3px;
      }

      .cls-6 {
        letter-spacing: 0em;
      }

      .cls-7 {
        letter-spacing: -.07em;
      }

      .cls-8 {
        letter-spacing: -.04em;
      }
    </style>
  </defs>
  <rect class="cls-1" x="2" y="47.38" width="302" height="54.67"/>
  <rect class="cls-1" x="303" y="47.38" width="302" height="54.67"/>
  <rect class="cls-1" x="605" y="47.38" width="302" height="54.67"/>
  <text class="cls-3" transform="translate(18.08 84.63)"><tspan x="0" y="0">PropertyID</tspan></text>
  <text class="cls-3" transform="translate(321.88 84.82)"><tspan x="0" y="0">Size</tspan></text>
  <text class="cls-3" transform="translate(622.08 84.2)"><tspan x="0" y="0">Data</tspan></text>
  <line class="cls-2" x1="37.33" y1="56.04" x2="74" y2="19.38"/>
  <line class="cls-2" x1="74" y1="19.38" x2="368.03" y2="19.38"/>
  <text class="cls-4" transform="translate(81.05 14.43)"><tspan x="0" y="0">Contains Info</tspan><tspan class="cls-5" x="107.46" y="0"> </tspan><tspan x="111.51" y="0">About Property </tspan><tspan class="cls-7" x="238.6" y="0">T</tspan><tspan x="247.63" y="0">ype</tspan></text>
  <line class="cls-2" x1="628.33" y1="56.04" x2="665" y2="19.38"/>
  <line class="cls-2" x1="665" y1="19.38" x2="811.33" y2="19.38"/>
  <line class="cls-2" x1="331.36" y1="95.04" x2="368.03" y2="131.71"/>
  <line class="cls-2" x1="368.03" y1="132.04" x2="535.33" y2="132.04"/>
  <text class="cls-4" transform="translate(375.03 128.13)"><tspan x="0" y="0">Property Data Size</tspan></text>
  <text class="cls-4" transform="translate(673.45 15.96)"><tspan class="cls-8" x="0" y="0">A</tspan><tspan class="cls-6" x="11.52" y="0" xml:space="preserve"> Property Data</tspan></text>
</svg>